<svg xmlns="http://www.w3.org/2000/svg" xml:space="preserve" id="Layer_1" x="0" y="0" style="enable-background:new 0 0 32 32" version="1.1" viewBox="0 0 32 32"><style>.st0{fill:#ffbf00}</style><path d="M24.95 32H1.43c-.01-.1-.02-.21-.02-.31V6.6h23.54V32zM12.7 28.19v.04h2.66c2.15 0 3.78-1.49 3.94-3.63.02-.23.1-.33.3-.43 1.02-.52 1.57-1.36 1.59-2.5.01-1.14-.52-2-1.53-2.53-.28-.15-.34-.3-.35-.59-.04-2.53-1.16-4.42-3.39-5.64-1.15-.63-2.41-.73-3.7-.69-1.16.04-2.25.34-3.21.98-1.93 1.29-2.9 3.11-2.88 5.43 0 .23-.05.36-.28.47-1.03.51-1.59 1.36-1.6 2.52-.01 1.17.56 2.02 1.59 2.55.2.1.29.2.29.43.05 1.78 1.51 3.41 3.29 3.56 1.09.11 2.19.03 3.28.03z" class="st0"/><path d="M12.11 0h18.48v26.34h-3.75v-.42c0-6.87 0-13.73.01-20.6 0-.29-.09-.4-.36-.49-4.72-1.56-9.43-3.14-14.15-4.71-.08-.03-.15-.05-.23-.08-.01-.02-.01-.03 0-.04z" class="st0"/><path d="M19.87 4.67H8.96V.98c3.64 1.21 7.28 2.43 10.92 3.64 0 .02-.01.03-.01.05zM17.4 18.8H8.01c-.06-1.48.42-2.71 1.54-3.66.8-.68 1.73-1 2.78-1.03 1.05-.03 2.06.04 2.98.62 1.44.91 2.13 2.23 2.12 3.93-.01.04-.02.08-.03.14zM12.69 22.58c-1.82 0-3.65 0-5.47-.01-.22 0-.46-.04-.65-.15-.35-.19-.5-.53-.43-.93.06-.38.29-.64.66-.75.16-.05.33-.05.49-.05h10.85c.11 0 .23 0 .34.02.5.08.86.51.82.98-.03.49-.41.87-.92.88-.66.01-1.31.01-1.97.01h-3.72zM8.02 24.49h9.36c.07.81-.63 1.66-1.49 1.82-.17.03-.35.05-.53.05-1.76 0-3.52.01-5.28 0-1.09 0-1.88-.66-2.05-1.68-.02-.06-.01-.11-.01-.19z" class="st0"/></svg>