<svg xmlns="http://www.w3.org/2000/svg" id="Layer_1" data-name="Layer 1" viewBox="0 0 893.68 749.53"><defs><style>.cls-1{fill:#e4e4e4}.cls-1,.cls-11,.cls-2,.cls-3,.cls-5,.cls-6,.cls-7,.cls-8,.cls-9{stroke-width:0}.cls-2{fill:#e6e6e6}.cls-3{fill:#9e616a}.cls-5{fill:#f0f0f0}.cls-6{fill:#fff}.cls-7{fill:#3f3d56}.cls-8{fill:#f50}.cls-9{fill:#ffb6b6}.cls-11{fill:#2f2e41}</style></defs><path d="M581.76 741.15 414.35 439.31c-.1-1.5-.93-2.85-2.23-3.61-.73-.42-1.57-.62-2.42-.58h-.16a4.438 4.438 0 0 0-4.63 4.05L227.48 741.15a4.508 4.508 0 0 0 1.64 6.15c2.15 1.24 4.9.51 6.15-1.64S409.5 449.12 409.5 449.12l164.47 296.54a4.506 4.506 0 0 0 6.15 1.65 4.506 4.506 0 0 0 1.65-6.15Z" class="cls-7"/><path d="m381.87 689.36 18.92-4.34-7.74-75.05-27.93 6.4 16.75 72.99z" class="cls-9"/><path d="m396.5 653.1-26.93 6.18-8.61-16.83-.49-.6a26.807 26.807 0 0 1-6.02-16.58l-22.38-59.21-1.83-.87c-5.5-2.61-7.83-9.19-5.22-14.69.2-.43.44-.85.7-1.25l-2.37-6.27-66.86.12-.07-.02-82.11-23.03 8.62-51.39 23.1 14.53c7.61-.49 137.98-8.5 150.02 20.72 10.72 26.02 26.18 70.47 37.26 103.17.55 1.47 1.24 2.88 2.05 4.22a18.56 18.56 0 0 1 2.94 8.86c.13 1.37.39 2.73.78 4.06 4.6 13.76-2.41 28.49-2.48 28.64l-.1.22ZM375.48 683.09l6.15-1.41 21.78-15.28 15.11 6.81c15.15-3.48 30.25 5.99 33.73 21.14l.2.89-70.48 16.17-6.5-28.32Z" class="cls-11"/><path d="M96.08 684.77c1.92-20.94 14.19-41.91 33.86-49.33a96.857 96.857 0 0 0 2.14 66.49c3.32 8.17 7.87 16.91 5.26 25.34-1.62 5.24-5.87 9.35-10.68 11.99-4.81 2.64-10.2 3.99-15.53 5.33l-1.03.91c-9.13-18.94-15.95-39.77-14.03-60.71Z" class="cls-5"/><path d="M191.78 670.75c-.31.21-.61.43-.92.65-4.1 2.89-7.96 6.11-11.54 9.62-.28.27-.56.54-.83.82a97.814 97.814 0 0 0-20.26 29.69 94.869 94.869 0 0 0-4.76 13.6c-1.71 6.42-3.06 13.51-6.68 18.83-.37.56-.78 1.1-1.22 1.6l-34.27 1.1c-.08-.04-.16-.07-.24-.1l-1.37.11c.05-.24.1-.5.15-.74.03-.14.06-.28.09-.43.02-.09.04-.19.05-.28 0-.03.01-.06.02-.09.01-.09.03-.17.05-.24.3-1.41.61-2.82.93-4.23v-.02c2.33-10.78 5.94-21.24 10.74-31.16.15-.29.29-.6.46-.89 2.23-4.4 4.81-8.61 7.73-12.58 1.6-2.17 3.31-4.26 5.13-6.26 4.7-5.16 10.18-9.54 16.24-13 12.08-6.88 26.23-9.83 39.49-6.29a38 38 0 0 1 1.01.28Z" class="cls-5"/><path d="M191.72 671.18a82.853 82.853 0 0 0-43.68 26.23 35.766 35.766 0 0 0-6.1 9.36 20.548 20.548 0 0 0-1.31 10.69c.42 3.38 1.25 6.79.84 10.21-.47 3.54-2.43 6.71-5.39 8.71-3.58 2.56-7.86 3.68-12.09 4.64-4.69 1.06-9.59 2.08-13.43 5.16-.47.37-1.02-.37-.55-.74 6.69-5.35 15.92-4.57 23.31-8.44 3.45-1.8 6.37-4.66 7.11-8.6.65-3.45-.2-6.97-.66-10.38-.56-3.52-.26-7.12.89-10.5 1.35-3.49 3.28-6.72 5.72-9.56a80.665 80.665 0 0 1 18.86-16.58 84.468 84.468 0 0 1 26.38-11.12c.58-.13.68.79.1.92Z" class="cls-6"/><path d="M151.47 692.98a12.418 12.418 0 0 1-.23-16.09c.38-.46 1.11.11.73.57a11.494 11.494 0 0 0 .25 14.96c.39.45-.35 1-.74.55ZM140.19 715.78c6.01.46 11.97-1.37 16.69-5.11.47-.37 1.02.37.55.74a24.87 24.87 0 0 1-17.38 5.28c-.6-.05-.46-.96.14-.92ZM173.53 677.41a7.02 7.02 0 0 0 5.64 3.56c.6.04.46.96-.14.92a7.852 7.852 0 0 1-6.25-3.93c-.14-.21-.1-.49.1-.65.21-.15.5-.11.65.1Z" class="cls-6"/><path d="M656.73 684.77c-1.92-20.94-14.19-41.91-33.86-49.33a96.857 96.857 0 0 1-2.14 66.49c-3.32 8.17-7.87 16.91-5.26 25.34 1.62 5.24 5.87 9.35 10.68 11.99 4.81 2.64 10.2 3.99 15.53 5.33l1.03.91c9.13-18.94 15.95-39.77 14.03-60.71Z" class="cls-5"/><path d="M622.66 635.83a82.801 82.801 0 0 1 19.08 47.24c.33 3.73.07 7.49-.76 11.15a20.42 20.42 0 0 1-5.39 9.32c-2.37 2.44-5.08 4.67-6.82 7.65a12.554 12.554 0 0 0-.94 10.2c1.31 4.2 4.06 7.67 6.86 10.98 3.11 3.67 6.4 7.43 7.62 12.21.15.58 1.04.32.89-.26-2.12-8.3-9.96-13.23-13.53-20.77-1.67-3.52-2.28-7.55-.5-11.15 1.56-3.15 4.35-5.44 6.78-7.9 2.57-2.47 4.5-5.53 5.61-8.92 1.02-3.6 1.42-7.34 1.19-11.08a80.284 80.284 0 0 0-5.08-24.59 84.134 84.134 0 0 0-14.37-24.76c-.38-.46-1.01.22-.64.68Z" class="cls-6"/><path d="M641.67 677.46a12.42 12.42 0 0 0 9.87-12.71.462.462 0 0 0-.49-.44c-.24.01-.44.21-.44.46.26 5.66-3.65 10.67-9.21 11.8-.58.12-.32 1.01.26.89ZM636.95 702.46c-5.07-3.25-8.73-8.3-10.25-14.13-.15-.58-1.04-.31-.89.26a24.929 24.929 0 0 0 10.69 14.68c.5.32.94-.49.44-.81ZM633.43 651.75c-2.17.95-4.67.74-6.65-.55-.5-.33-.94.49-.44.81a7.886 7.886 0 0 0 7.36.63c.24-.08.38-.33.31-.58a.47.47 0 0 0-.58-.31Z" class="cls-6"/><path d="M561.04 670.75c.31.21.61.43.92.65 4.1 2.89 7.96 6.11 11.54 9.62.28.27.56.54.83.82a97.814 97.814 0 0 1 20.26 29.69c1.93 4.41 3.52 8.95 4.76 13.6 1.71 6.42 3.06 13.51 6.68 18.83.37.56.78 1.1 1.22 1.6l34.27 1.1c.08-.04.16-.07.24-.1l1.37.11c-.05-.24-.1-.5-.15-.74-.03-.14-.06-.28-.09-.43-.02-.09-.04-.19-.05-.28 0-.03-.01-.06-.02-.09-.01-.09-.03-.17-.05-.24-.3-1.41-.61-2.82-.93-4.23v-.02a138.938 138.938 0 0 0-10.74-31.16c-.15-.29-.29-.6-.46-.89-2.23-4.4-4.81-8.61-7.73-12.58-1.6-2.17-3.31-4.26-5.13-6.26a66.665 66.665 0 0 0-16.24-13c-12.08-6.88-26.23-9.83-39.49-6.29a38 38 0 0 0-1.01.28Z" class="cls-5"/><path d="M561.1 671.18a82.853 82.853 0 0 1 43.68 26.23c2.51 2.78 4.57 5.94 6.1 9.36 1.38 3.38 1.83 7.07 1.31 10.69-.42 3.38-1.25 6.79-.84 10.21.47 3.54 2.43 6.71 5.39 8.71 3.58 2.56 7.86 3.68 12.09 4.64 4.69 1.06 9.59 2.08 13.43 5.16.47.37 1.02-.37.55-.74-6.69-5.35-15.92-4.57-23.31-8.44-3.45-1.8-6.37-4.66-7.11-8.6-.65-3.45.2-6.97.66-10.38.56-3.52.26-7.12-.89-10.5a32.837 32.837 0 0 0-5.72-9.56 80.665 80.665 0 0 0-18.86-16.58 84.468 84.468 0 0 0-26.38-11.12c-.58-.13-.68.79-.1.92Z" class="cls-6"/><path d="M601.35 692.98c4.01-4.58 4.11-11.39.23-16.09-.38-.46-1.11.11-.73.57a11.494 11.494 0 0 1-.25 14.96c-.39.45.35 1 .74.55ZM612.63 715.78c-6.01.46-11.97-1.37-16.69-5.11-.47-.37-1.02.37-.55.74a24.87 24.87 0 0 0 17.38 5.28c.6-.05.46-.96-.14-.92ZM579.29 677.41a7.02 7.02 0 0 1-5.64 3.56c-.6.04-.46.96.14.92a7.852 7.852 0 0 0 6.25-3.93c.14-.21.1-.49-.1-.65a.463.463 0 0 0-.65.1Z" class="cls-6"/><path d="M893.68 748.34c0 .66-.53 1.19-1.19 1.19H1.19c-.66 0-1.19-.53-1.19-1.19s.53-1.19 1.19-1.19h891.3c.66 0 1.19.53 1.19 1.19Z" class="cls-7"/><circle cx="574.11" cy="283.5" r="4.5" class="cls-7"/><path d="m517.76 318.16 60.67-38.11c2.24-1.41 5.2-.73 6.61 1.51 1.41 2.24.73 5.2-1.51 6.61-.12.08-.25.15-.38.21l-63.87 32.47c-.76.39-1.69.08-2.08-.68a1.55 1.55 0 0 1 .56-2.01Z" class="cls-1"/><path d="M396.05 400.23a4.2 4.2 0 0 1 .07-4.79 9.844 9.844 0 0 1 3.97-3.14c3.25-1.65 6.74-2.76 10.35-3.27 2.74-.39 5.73-.51 7.86-2.29 2.11-1.76 3.29-5.05 6.02-5.33 2.65-.27 4.68 2.63 7.33 2.81 3.27.22 5.41-3.6 8.59-4.39 2.13-.53 4.32.4 6.32 1.31l11.99 5.44 6.14 2.79c2.15.97 4.57 2.28 4.97 4.61.56 3.19-2.99 5.44-6.02 6.57-21.66 7.99-45.46 8-67.12 0" style="fill:#ffc299;stroke-width:0"/><ellipse cx="414.11" cy="436.5" class="cls-7" rx="157.5" ry="22.5"/><path d="M625.61 576h108a9 9 0 0 1 0 18h-108a9 9 0 0 1 0-18Z" class="cls-7"/><path d="m785.95 415.54-35.67 169.45 9.29 43.37 17.54 81.85v36.94c0 .81-.16 1.62-.44 2.38h-14.1c-.29-.76-.43-1.57-.44-2.38 0-.05-.01-.1 0-.15v-35.21l-15.92-74.29-3.22-15-6.23-29.07-1.8-8.42 1.78-8.45 1.37-6.51 33.18-157.59c.85-4.05 4.82-6.66 8.87-5.81 4.05.85 6.66 4.82 5.81 8.87v.02ZM633.11 585v162.15c0 .81-.16 1.62-.44 2.38h-14.1c-.29-.76-.43-1.57-.44-2.38 0-.05-.01-.1 0-.15V585c0-4.14 3.36-7.5 7.5-7.5s7.5 3.36 7.5 7.5Z" class="cls-7"/><path d="M643.61 558h72c14.91 0 27 12.09 27 27h-126c0-14.91 12.09-27 27-27ZM751.61 637.5h-126c-4.14 0-7.5-3.36-7.5-7.5s3.36-7.5 7.5-7.5h126c4.14 0 7.5 3.36 7.5 7.5s-3.36 7.5-7.5 7.5Z" class="cls-7"/><rect width="145.09" height="20.73" x="156.52" y="573.55" class="cls-7" rx="9" ry="9"/><path d="m164.21 584.03-2.3 9.48-8.44 34.72-3.64 15-16.9 69.58V743c0 1.48-.43 2.92-1.26 4.15-.65.99-1.53 1.81-2.57 2.38h-7.34a7.243 7.243 0 0 1-2.57-2.38 7.396 7.396 0 0 1-1.26-4.15v-31.99l18.78-77.3 12.12-49.92-41.1-195.25c-.85-4.05 1.74-8.03 5.79-8.88s8.03 1.74 8.88 5.79v.01l37.99 180.43 1.75 8.32 2.04 9.7.03.12ZM298.75 583.91V743c0 1.48-.43 2.92-1.26 4.15-.65.99-1.53 1.81-2.57 2.38h-7.35a7.297 7.297 0 0 1-2.56-2.38 7.396 7.396 0 0 1-1.26-4.15V583.91c0-4.14 3.36-7.5 7.5-7.5s7.5 3.36 7.5 7.5Z" class="cls-7"/><path d="M301.61 583.91H156.52v-4.09c0-14.91 12.09-27 27-27h91.09c14.91 0 27 12.09 27 27v4.09ZM291.25 643.23H146.16c-4.14 0-7.5-3.36-7.5-7.5s3.36-7.5 7.5-7.5h145.09c4.14 0 7.5 3.36 7.5 7.5s-3.36 7.5-7.5 7.5Z" class="cls-7"/><path d="m477.71 708.65-15.76-7.54 21.65-65.89 23.27 11.13-29.16 62.3zM584.54 702.68l-16.95 4.18-24.56-64.84 25.02-6.18 16.49 66.84zM519.57 422.27c4.68 7.59 14.55 10.07 22.26 5.58.75-.45 1.45-.96 2.11-1.53l49.84 28.6-2.16-29.36-46.99-22.66a16.376 16.376 0 0 0-19.86-2.59c-7.46 4.48-9.88 14.16-5.4 21.62.07.11.13.22.2.33Z" class="cls-3"/><path d="m572.36 444.15 8.81 5.37 39.56 24.13c10.92 6.83 25.32 3.52 32.15-7.4 0 0 0-.01.01-.02a22.803 22.803 0 0 0 2.91-16.11l-17.58-87.85c-2.49-13.23-15.24-21.94-28.47-19.44-1.2.23-2.38.54-3.53.94-11.56 4.06-17.97 16.41-14.64 28.2l18.39 62.35-28.18-13.14-9.42 22.99Z" class="cls-2"/><path d="m551.53 684.51-27.12-54.4v-.12l2.68-99.78c.03-.89.11-1.78.21-2.66.96-8.08 5.12-15.44 11.55-20.43 6.16-4.82 14-6.96 21.75-5.95l77.56 10.04 2.69-11 .5-.18 74.31-27.24.43.7c9.73 15.84 16.54 47.47 18.39 56.79l.03.13c.04.2.06.32.07.35 3.83 15.9-11.98 42.24-27.73 46.2-33.17 8.45-62.84 1.86-97.19-5.78-12.32-2.74-25.05-5.57-39.07-8.02l.42 8.25c.34 6.35 1.66 12.61 3.91 18.56 2.5 7.32 4.47 13.11.3 25.16l-2.02 5.83c2.12 5.87 1.37 12.4-2.04 17.63l-.41.62 17.89 45.26h-37.11Z" class="cls-11"/><path d="m506.96 660.45-32.34-3.01 11.46-36.65c2.36-23.93 8.32-47.36 17.67-69.52l15.63-37.04c.04-.82.11-1.65.21-2.47.96-8.08 5.12-15.44 11.55-20.43 6.16-4.82 14-6.96 21.75-5.95l77.45 10.02 3.37-28.31 74.33-9.95.34.55c12.99 21.14 21.24 37.69 25.96 52.08.24.73.45 1.48.63 2.23 3.85 16.01-5.76 32.24-21.43 36.18-39.93 10.18-87.96 9.9-151.1-.89l-30.56 72.72c-2.92 6.95-6.54 13.58-10.79 19.8l-14.13 20.62Z" class="cls-11"/><ellipse cx="619.79" cy="255.04" class="cls-3" rx="37.47" ry="38.3"/><path d="m630.61 496.76-5.38-19.26-1.32-9.5-7.73.26-15.16-35-5.89-9.23c-1.2-1.26-2.29-2.48-3.26-3.65a82.248 82.248 0 0 1-14.56-23.44 61.525 61.525 0 0 1-4.26-19.3c-1.1-19.56 7.15-40.25 25.21-63.25-.3-.81-.49-1.66-.59-2.52-.67-5.82 3.47-11.09 9.28-11.81l17.42-1.96c2.74-.31 5.48.49 7.62 2.22 2.24 1.79 3.66 4.41 3.95 7.26.23 2.18-.2 4.38-1.23 6.32a46.507 46.507 0 0 1 38.61 32.49 309.18 309.18 0 0 1 24.78 61.21c1.19 4.16.66 8.44.15 12.59-.47 3.83-.96 7.78-.14 11.73.84 4.01 2.86 8.04 4.99 12.3 2.45 4.88 4.98 9.93 5.66 15.07l.05.36-78.2 37.13Z" class="cls-1"/><path d="M577.77 396.75a81.925 81.925 0 0 0 14.48 23.31c1.04 1.25 2.15 2.47 3.3 3.7l5.93 9.3c21.85-16.38 39.55-80.86 39.55-80.86l-24.65-4.8-38.6 49.35Z" style="isolation:isolate;opacity:.2;stroke-width:0"/><path d="M562.85 296.92c4.49 7.71 2.02 17.59-5.56 22.29-.75.45-1.53.83-2.35 1.15l1.74 57.43-24.87-15.66 2.16-52.14c-2.18-7.14.73-14.84 7.07-18.76 7.43-4.49 17.09-2.11 21.59 5.31.07.12.15.25.22.37Z" class="cls-3"/><path d="M558.87 356.11 531.52 360l1.18 56.64c.14 8.22 4.52 15.77 11.59 19.97a22.704 22.704 0 0 0 27.12-3.08l64.58-62.11c9.43-8.95 10.23-23.71 1.8-33.62-8.28-9.8-22.93-11.03-32.72-2.75-.18.16-.37.31-.54.47-.64.57-1.25 1.18-1.82 1.81l-42.64 49.05-1.19-30.28Z" class="cls-2"/><path d="M330.1 725.57h19.42l9.23-74.89H330.1v74.89z" class="cls-9"/><circle cx="220.06" cy="255.7" r="38.75" class="cls-9" transform="rotate(-80.78 220.07 255.703)"/><path d="M355.85 702.5h-27.49l-7.01-9.4-1.9-8.85-1.63-1.58a13.635 13.635 0 0 1-2.3-16.76l-19.92-92.96c-5.22-.46-64.07-5.72-104.98-12.96-10.47-1.85-18.64-6.94-24.3-15.13-13.89-20.11-7.94-52.65-7.88-52.98l.07-.36.37-.04 95.55-10.73.13.06c3.17 1.5 77.8 36.93 90 49.13 5.51 5.51 17.79 38.23 20.54 73.01.49 6.23-1.28 12.58-3 18.72-1.6 5.74-3.26 11.68-2.94 17.29.51 8.66.99 17.75 1.42 27.01.07 1.48 1.18 3 2.26 4.48 1.12 1.54 2.18 3 2.25 4.52.65 14.78-9.01 27.21-9.11 27.33l-.15.19Z" class="cls-11"/><path d="M362.11 358.91c-7.86-2.15-15.98 2.48-18.13 10.35-.23.84-.38 1.7-.46 2.56l-32.2 10.06 1.34 21.06 45.27-14.85c8.19.2 15-6.28 15.19-14.48.17-6.86-4.39-12.93-11.02-14.7Z" class="cls-9"/><path d="m341.11 393.75-24.06 9.11-.62 1.19c-3.07 5.96-10.39 8.3-16.35 5.23L246 429.75s-24.15-24.17-41.35-45.74l5.86-36.05a69.132 69.132 0 0 1 8.51-23.73c35.27 7.73 55.51 57.03 55.51 57.03l63.56-12.13 3.02 24.61Z" class="cls-8"/><path d="M214.55 292.38c-9.7 2.62-20.4-.86-27.97-7.47s-12.31-15.97-15.03-25.64c-2-7.08-2.95-14.94.21-21.59s11.64-11.14 18.19-7.78c-4.04-4.71-2.02-12.49 2.7-16.52s11.2-5.18 17.37-5.81c8.95-.92 18.2-1.02 26.72 1.88s16.26 9.24 18.93 17.84c5.6 2.61 12.26 1.11 16.19-3.66a12.306 12.306 0 0 1-6.78 13.34l13.06-4.23c2.25 4.75-1.69 10.63-6.72 12.16s-10.46-.14-15.24-2.34-9.4-4.98-14.59-5.84-11.28.81-13.68 5.49c-1.26 2.45-1.32 5.32-2.05 7.97s-2.58 5.41-5.32 5.62c-1.73.14-3.43-.79-5.16-.6-2.14.23-3.78 2.18-4.36 4.26-.43 2.12-.44 4.3-.02 6.42l3.32 25.35" class="cls-11"/><path d="M166.55 549.5h-.02l-.31-.05-.09-.3c-1.11-3.75-2.53-7.58-3.9-11.29-2.02-5.14-3.72-10.39-5.11-15.74-1.09-5.11-1.84-10.28-2.26-15.49-.38-3.78-.78-7.69-1.45-11.54-.3-1.71.83-3.33 1.93-4.89 1.01-1.45 1.97-2.82 1.77-4.12-.21-1.33-1.68-2.78-3.1-4.19-1.56-1.54-3.17-3.14-3.4-4.82a480.339 480.339 0 0 1-4.33-69.16c.32-32 1.77-53.81 4.3-64.83 6.81-29.63 38.25-35.03 43.17-35.7 2.11-5.62 8.38-8.46 13.99-6.35.24.09.47.19.7.29l22.34 10.23a36.397 36.397 0 0 1 19.34 21.6l3.32 10.12 1.66 67.92-9.21 47.83 18 27c-95.93 52.67-97.05 63.5-97.36 63.5Z" class="cls-8"/><path d="M319.66 718.02h6.31L350.61 708l13.21 10.02c15.54 0 28.14 12.6 28.14 28.14v.91h-72.31v-29.06Z" class="cls-11"/><path d="M370.18 407.38c-7.03-4.13-16.08-1.77-20.2 5.26-.44.75-.81 1.54-1.11 2.35l-33.71 1.31-4.54 15.7 47.92 2.45c7.86 2.33 16.12-2.15 18.45-10.01 1.95-6.58-.86-13.63-6.8-17.06Z" class="cls-9"/><path d="m342.49 436.15-34.62-.43-4.38-.06-70.44-.89s-19.13-18.25-35.79-37.04l2.33-16.89a69.055 69.055 0 0 1 23.13-42.72c23.86 15.94 37.69 47.49 37.69 47.49l23.2 10.38c16.32.73 32.23 5.39 46.37 13.58l7.63 4.42 4.88 22.15Z" class="cls-8"/><path d="m596.91 734.62-11.52 2.84-4.74-10.37-2.58 12.18-30.55 7.54a7.067 7.067 0 0 1-8.56-5.17c-.56-2.26.03-4.64 1.57-6.38l20.24-22.87-2.71-11 26.04-4.8 12.82 38.04ZM474.87 738.18l-10.99-4.48 2.27-11.17-9.26 8.32-29.14-11.89a7.08 7.08 0 0 1-3.88-9.22 7.091 7.091 0 0 1 5.03-4.24l29.83-6.57 4.28-10.49 23.88 11.45-12.03 38.29Z" class="cls-11"/><path d="M436.61 432.5h-9c-20.15-.02-36.48-16.35-36.5-36.5v-.5h82v.5c-.02 20.15-16.35 36.48-36.5 36.5Z" class="cls-1"/><path d="M427.61 382.5c0 2.49-4.5 4.5-4.5 4.5s-4.5-2.01-4.5-4.5 4.5-4.5 4.5-4.5 4.5 2.01 4.5 4.5ZM454.61 382.5c0 2.49-4.5 4.5-4.5 4.5s-4.5-2.01-4.5-4.5 4.5-4.5 4.5-4.5 4.5 2.01 4.5 4.5ZM436.61 391.5c0 2.49-4.5 4.5-4.5 4.5s-4.5-2.01-4.5-4.5 4.5-4.5 4.5-4.5 4.5 2.01 4.5 4.5Z" class="cls-7"/><circle cx="405.11" cy="368.5" r="4.5" class="cls-7"/><path d="m339.67 358.83 70.97 9.8c2.62.36 4.46 2.78 4.1 5.41a4.795 4.795 0 0 1-5.84 4.02l-69.79-16.19a1.546 1.546 0 0 1 .56-3.04Z" class="cls-1"/><path d="M425.91 135.21V0h-9v135.21c-25.49 2.33-45 23.7-45 49.29V198h31.5c0 9.94 8.06 18 18 18s18-8.06 18-18h31.5v-13.5c0-25.59-19.51-46.96-45-49.29ZM541.78 101.41V0h-6.75v101.41c-19.11 1.74-33.75 17.77-33.75 36.97v10.13h23.62c0 7.46 6.04 13.5 13.5 13.5s13.5-6.04 13.5-13.5h23.62v-10.13c0-19.19-14.64-35.22-33.75-36.97ZM313.78 101.41V0h-6.75v101.41c-19.11 1.74-33.75 17.77-33.75 36.97v10.13h23.62c0 7.46 6.04 13.5 13.5 13.5s13.5-6.04 13.5-13.5h23.62v-10.13c0-19.19-14.64-35.22-33.75-36.97Z" class="cls-5"/><path d="M720.05 238.43c-6.37-7.43-9.4-17.28-14.49-25.71s-13.95-15.98-23.31-14.02c-6.45 1.35-11.44 7.05-13.96 13.39-2.52 6.35-3 13.35-3.44 20.21.16-14.09-9.13-27.75-21.92-32.25-12.79-4.5-28.1.52-36.13 11.84-7.26-6.73-18.4-6.96-25.94-.54-7.19 6.42-8.78 18.65-3.49 26.85s16.74 11.25 25.14 6.7l2.97 2.73c-1.67 5.85 1.57 12.75 7.02 14.96 4.42 1.79 10.66 1.49 12.31 6.13 1.16 3.24-1 6.7-3.3 9.19-2.3 2.49-5.03 5.06-5.3 8.51-.42 5.2 4.96 8.84 9.84 9.94 11.78 2.65 24.85-2.81 31.63-13.2.13-.2.27-.4.43-.6a45.46 45.46 0 0 0 9.15-34.78c-.38-2.4 0-4.19 1.66-4.76 7.16-2.46 27.22 2.7 33.29 7.37 6.07 4.66 10.93 10.84 16.78 15.8 5.85 4.97 13.3 8.8 20.72 7.44 5.95-1.08 11-5.4 14.41-10.61 3.4-5.21 5.36-11.28 7.11-17.31-13.15 7.6-31.14 4.42-41.17-7.27Z" class="cls-11"/></svg>