<svg xmlns="http://www.w3.org/2000/svg" xml:space="preserve" id="Layer_1" x="0" y="0" style="enable-background:new 0 0 32 32" version="1.1" viewBox="0 0 32 32"><style>.st0{fill:#ffbf00}</style><path d="M16 0h10.31c1.44 0 2.51.81 2.83 2.13.06.26.09.54.09.81.01 1.28.01 2.57 0 3.85-.01 1.78-1.19 2.95-2.97 2.95-2.2 0-4.39.01-6.59-.01-.58 0-1.01.2-1.33.67-.37.55-.74 1.1-1.1 1.65-.65.98-1.8.99-2.46 0-.38-.57-.77-1.13-1.14-1.71-.22-.34-.51-.54-.91-.55-1.13-.03-2.26-.06-3.39-.07-1.24.01-2.47.03-3.7.02-1.64 0-2.85-1.18-2.87-2.82-.02-1.36-.02-2.72 0-4.08C2.79 1.17 3.98.01 5.66 0H16zm-.02 6.76c.35.26.69.51 1.03.76.26.19.53.18.78-.01s.34-.44.25-.75c-.11-.36-.22-.73-.35-1.08-.06-.18-.03-.28.11-.39.25-.19.49-.39.73-.6.23-.2.33-.46.2-.76s-.36-.45-.69-.45c-.28 0-.57-.01-.85 0-.17.01-.25-.04-.29-.22-.06-.25-.15-.5-.24-.74-.11-.28-.31-.42-.62-.43a.625.625 0 0 0-.64.4c-.1.22-.18.44-.24.67-.06.23-.17.34-.43.32-.28-.03-.56-.01-.85.01-.31.02-.53.17-.62.48-.1.32 0 .58.25.78.23.19.45.37.7.54.16.11.17.21.1.38-.12.31-.23.63-.32.96-.08.32-.13.65.21.88.31.21.6.18.99-.11.26-.21.52-.43.79-.64zm-7.65 0c.31.24.61.47.92.69.37.25.63.26.9.05.26-.2.33-.48.2-.89-.1-.32-.22-.64-.3-.96a.46.46 0 0 1 .1-.34c.22-.21.46-.39.7-.59.25-.21.36-.47.23-.78-.13-.32-.38-.46-.72-.46H9.32c-.1-.31-.19-.6-.29-.89-.11-.3-.3-.49-.65-.5-.36-.01-.57.18-.69.49-.11.29-.21.59-.33.9-.39 0-.77-.01-1.14 0a.66.66 0 0 0-.63.49c-.09.32-.01.58.25.78.23.19.46.37.7.54.15.11.16.22.1.38-.12.33-.23.66-.32.99-.09.32-.11.64.21.85.32.21.64.16.94-.07.29-.23.57-.46.86-.68zm16.31-3.28c-.11-.34-.21-.65-.32-.95-.11-.29-.32-.43-.63-.44-.31-.01-.52.13-.65.4-.1.22-.19.44-.25.67-.06.24-.17.34-.42.32-.27-.02-.54-.01-.81.01-.32.02-.57.16-.66.49-.09.31-.01.58.25.79.22.17.44.36.67.52.16.11.19.22.12.41-.14.41-.28.82-.35 1.25-.07.43.22.72.65.7.19-.01.39-.12.56-.23.29-.2.56-.44.82-.65.34.25.67.49.99.73.27.2.54.22.81.02.28-.21.34-.49.24-.81-.1-.33-.2-.67-.32-.99-.07-.19-.05-.31.12-.44.25-.18.47-.38.7-.58.23-.2.33-.45.2-.76-.13-.3-.36-.45-.69-.45-.32-.01-.67-.01-1.03-.01zM16.52 24.35c2.63.29 4.69 1.51 6.07 3.79A7.23 7.23 0 0 1 23.64 32h-2.77c0-.44.01-.87 0-1.3-.01-.43-.25-.71-.62-.76-.41-.05-.76.26-.77.73-.01.43 0 .87 0 1.32h-6.95v-.63c0-.24.01-.48 0-.72-.03-.42-.32-.72-.7-.71-.38 0-.67.29-.69.72-.01.22 0 .43 0 .65v.68H8.37c.02-2 .71-3.74 2.07-5.19 1.36-1.46 3.07-2.24 5.05-2.43-2.24-.5-3.14-2.36-2.91-3.98.25-1.72 1.76-3.01 3.47-2.98 1.74.03 3.22 1.33 3.42 3.04.19 1.74-.87 3.49-2.95 3.91z" class="st0"/><path d="M8.21 20.88c.97.09 1.9.33 2.78.77.11.06.21.2.26.33.26.62.51 1.25.76 1.86-.55.38-1.18.76-1.76 1.21a8.4 8.4 0 0 0-2.46 3.2c-.11.24-.24.3-.49.3-1.03-.01-2.06-.01-3.13-.01 0-.46.01-.89 0-1.32-.01-.42-.23-.69-.58-.76-.44-.08-.8.25-.81.75-.01.43 0 .86 0 1.31H.05c-.22-2.89 2.12-7.2 7.05-7.66-.98-.22-1.79-.7-2.35-1.55-.56-.84-.7-1.77-.47-2.75.38-1.62 1.89-2.72 3.57-2.64 1.63.08 3.03 1.36 3.25 3 .21 1.69-.78 3.49-2.89 3.96zM29.23 28.53c0-.47.01-.92 0-1.36-.01-.38-.24-.63-.57-.7-.3-.06-.64.11-.75.4-.06.15-.07.32-.07.48-.01.39 0 .78 0 1.2h-.71c-.84 0-1.67.01-2.51-.01-.11 0-.28-.08-.32-.17-.92-2.02-2.38-3.51-4.39-4.5.04-.08.09-.15.12-.22.23-.51.49-1.01.68-1.54.09-.25.19-.39.43-.5.89-.4 1.82-.63 2.84-.71-2.32-.43-3.27-2.27-3.08-3.92.19-1.69 1.68-3.03 3.41-3.05a3.48 3.48 0 0 1 3.49 2.99c.23 1.64-.73 3.55-3.01 3.97 5.05.43 7.35 4.72 7.18 7.64h-2.74z" class="st0"/></svg>