<svg xmlns="http://www.w3.org/2000/svg" xml:space="preserve" id="Layer_1" x="0" y="0" style="enable-background:new 0 0 32 32" version="1.1" viewBox="0 0 32 32"><style>.st0{fill:#ffbf00}</style><path d="M29.95 27.37c-9.34.02-18.68.01-28.02.01h-.37c-.64.03-1.18.48-1.35 1.09-.17.61.03.88.66.88 10.08 0 20.16 0 30.24.01.3 0 .54-.06.72-.31v-.49c-.3-.9-.95-1.19-1.88-1.19zM12.68 5.6h1.33v1.17c-2.55.52-4.7 1.74-6.37 3.74-1.67 2.01-2.5 4.33-2.54 6.94h21.77c.04-5.22-3.9-9.91-8.88-10.7C18 6.38 18 6 18 5.6h1.37c.4 0 .58-.18.59-.59V3.22c0-.4-.18-.59-.59-.59h-6.74c-.41 0-.59.18-.59.58v1.73c0 .5.16.66.64.66zm.79 4.38c-.07.03-.14.05-.2.07-.8.29-1.53.71-2.19 1.24-.86.69-1.55 1.52-2.09 2.5-.09.17-.27.29-.35.37-.53.01-.75-.38-.55-.77.44-.86 1.22-1.72 1.91-2.39.96-.93 1.87-1.52 3.14-1.95.32-.11.6.01.69.28.09.27-.04.52-.36.65zm1.55-4.35h1.95v.99h-1.95v-.99zM27.35 21.44c.9 0 1.58-.72 1.52-1.59-.06-.81-.71-1.38-1.61-1.38H4.53c-.77.05-1.39.69-1.39 1.47-.01.86.66 1.5 1.58 1.5H22.6c1.57 0 3.16.01 4.75 0zM29.84 26.37c.19-1.31-.68-1.98-1.73-1.97-6.14.03-12.29.01-18.43.01H3.71c-.46 0-.85.14-1.17.47-.4.42-.44.93-.39 1.49h27.69zM2.69 12.01c.25.12.53.03.68-.25.04-.08.08-.17.12-.25.5-1.05 1.12-2.01 1.86-2.9.88-1.05 1.9-1.95 3.04-2.71.17-.11.28-.3.39-.41-.04-.14-.05-.19-.07-.24-.12-.35-.46-.43-.83-.19a14.546 14.546 0 0 0-4.74 5c-.24.42-.46.85-.66 1.29-.13.27-.02.54.21.66zM23.55 5.87c2.24 1.46 3.92 3.41 5.05 5.84.15.33.43.44.7.31.27-.13.34-.41.19-.75-1.2-2.58-2.99-4.65-5.37-6.21-.11-.07-.24-.11-.43-.21-.13.14-.31.25-.39.42-.12.25.03.45.25.6zM8.18 7.28a12.684 12.684 0 0 0-3.44 3.96c-.17.3-.1.58.15.73.25.15.53.07.7-.23.82-1.45 1.88-2.68 3.19-3.7.12-.09.18-.26.3-.43-.13-.16-.21-.36-.34-.4-.17-.05-.42-.03-.56.07z" class="st0"/><path d="M23.34 8.15c1.22.96 2.21 2.12 2.99 3.47.06.1.11.23.19.27.16.07.36.15.5.1.15-.05.26-.25.38-.38-.08-.19-.12-.32-.19-.43-.53-.95-1.17-1.83-1.93-2.59-.47-.47-.99-.91-1.5-1.34a.473.473 0 0 0-.69.07c-.17.21-.14.48.07.69.06.05.12.09.18.14zM14.03 23.4h3.92v-.95h-3.92v.95z" class="st0"/></svg>