<svg xmlns="http://www.w3.org/2000/svg" id="Camada_1" version="1.1" viewBox="0 0 150 150"><defs><style>.st0{fill:#0a6633}.st1{fill:#ea601d}.st2{fill:#098036}</style></defs><g id="LOGO"><path d="M31.7 60.2c0 3.8 1 7.3 2.7 10.7 1 2.1 2.2 4.1 3.4 6.1.5.8 1 1.2 2.1.8 2.4-.9 4.8-1.3 7.4-.9 2.4.3 4.5 1.5 6.2 3.1 3.3 3.1 6.4 6.4 9.6 9.6l6.3 6.3.3.3c.5.6 1.1 1.3.5 2.1-.4.6-1.8.4-2.5-.2l-2.4-2.4c-3.5-3.6-7.1-7.2-10.6-10.8-1.3-1.4-3-1.3-4.6-.8-1.5.5-2.3 1.8-2.4 3.5 0 1.3.3 2.3 1.3 3.3 4.3 4.3 8.5 8.6 12.7 12.9.2.2.5.5.5.8 0 .5 0 1.2-.2 1.5-.3.3-1.1.3-1.4 0-1-.8-1.9-1.7-2.8-2.6-3.6-3.5-7.2-7.1-10.9-10.7-1.3-1.3-3.8-1.5-5.3-.6-1.8 1.1-2.3 4.3-.8 5.9 3.4 3.6 6.9 7.1 10.4 10.6 1.1 1.1 2.3 2.2 3.4 3.3.3.4.5 1.2.3 1.6-.3.5-1 .9-1.6.4-1.2-1-2.4-2-3.5-3.1-4.1-4-8.1-8.1-12.2-12-3.4-3.2-4.7-7-4.4-11.5 0-1.2.6-2.3.7-3.5 0-.5 0-1.1-.2-1.5-.9-1.4-1.9-2.6-2.8-4-1.7-2.6-3-5.3-4-8.3-1.1-3.2-1.7-6.5-1.7-9.8 0-3.6.9-7 2.3-10.3 1.7-3.8 4.1-7 7.1-9.9 1.4-1.3 3.2-2.2 4.9-3 2.5-1.1 5.2-2.2 7.8-2.8 2.3-.5 4.8-.4 7.2-.3 6.9.4 12.3 3.7 16.9 8.6 1 1.1 1.9 2.3 2.8 3.4.8 1 1.1 1 1.8 0 2.9-3.9 6.4-7.2 10.7-9.5 4.7-2.6 9.7-3.6 15.1-2.6 2.7.5 5.2 1.3 7.6 2.5 2 1 3.9 2.4 5.8 3.8 3.4 2.6 5.6 6.2 7.4 10.1 1.4 3.1 2 6.4 2.2 9.7.1 3.3-.6 6.4-1.6 9.5-1.5 4.6-4 8.7-6.9 12.5-.9 1.1-1.9 2.1-2.9 3.1-.6.6-.8 1.3-.8 2.1.1 1.5.1 3 .1 4.5 0 3.4-1.5 6.3-3.3 9.1-3.5 5.4-8.2 9.4-14.1 11.9-2.6 1.1-5.2 1.5-8 1.1-1.4-.2-2.8-.4-3.9-1.3-2-1.6-3-3.8-3.3-6.3-.5-4.9 1.3-9.1 3.9-13 2.5-3.6 5.6-6.6 9.4-8.8 4.1-2.4 8.6-3.2 13.4-2.6.6 0 1.5-.1 1.8-.6 2.7-2.9 5-6.1 6.9-9.6 2.5-4.7 3.4-9.8 2.5-15-.4-2.3-1.3-4.5-2.6-6.5-1.5-2.2-3.1-4.3-5.3-5.9-3.6-2.5-7.5-4.4-11.9-4.6-4-.2-7.6 1.2-10.8 3.6-3.2 2.4-5.7 5.5-7.7 8.9-.6 1.1-1.1 2.2-1.7 3.3-1.3 2.3-4.3 2.3-5.7 0-1.3-2.1-2.4-4.4-3.7-6.4-2.4-3.8-5.7-6.6-9.8-8.1-3.6-1.4-7.4-1.3-11.1-.4-2.6.7-5 1.7-7.2 3.1-2.3 1.5-4.1 3.7-5.6 6-1.3 2.1-2.2 4.3-2.6 6.7-.2 1.2-.3 2.4-.4 3.6ZM83 108.9c.2 1.2 1 1.8 1.9 2.3 2.9 1.8 6 1.5 8.9.2 1.9-.8 3.7-2 5.6-3.1 2.8-1.6 5-3.9 6.9-6.4 2.2-3 4.2-6.1 4.8-10 .2-1.7 0-3.2-.5-4.7-.2-.8-.8-1.5-1.3-2.2-.2-.3-.8-.4-1.2-.5v1.1c0 2.2.5 4.4 0 6.5-.6 3.1-2.3 5.8-4.3 8.2-3.2 3.7-6.7 7.1-11.5 8.7-1.5.5-3.2.7-4.9.7-1.2 0-2.3-.5-3.5-.8H83Z" class="st1"/><path d="M98 17.9c-8.5 5.9-16.5 12.5-24.9 18.8-.1-.4-.3-.6-.2-.7.1-2.5.3-4.9.5-7.4.1-2.1.8-4 1.5-6 1.6-4.4 4.3-7.9 8.2-10.4 2.6-1.7 5.5-2.9 8.5-3.9 6.3-2.1 12.7-2.3 19.3-2.1 1 0 1.3.4 1.3 1.4 0 4.2-.9 8.3-2.5 12.2-1.3 3.2-3.3 6-5.7 8.5-.4.4-1.2.6-1.8.6-2.5 0-5-.1-7.5-.1-2.9 0-5.6.8-8.3 2-.3.1-.7.2-1.2.1 4.1-4.4 8.8-8.2 12.7-12.8ZM67.8 30.7c-1.5.3-2.8.1-4.1-.1-1.4-.3-2.9-.7-4.3-1.1-4.7-1.3-8.8-3.7-11.9-7.6-1.7-2.1-3-4.4-3.9-6.9-.8-2.3-1.4-4.7-1.4-7.1 0-1.2.2-1.3 1.4-1.2 2.9.4 5.9.6 8.8 1.2 2.1.4 4.2 1.1 6.2 1.8 1.7.7 3.5 1.4 4.9 2.5 3 2.2 5.2 5.1 6.2 8.7.6 2.1.8 4.4 1.1 6.6 0 .4-.3.8-.4 1.2-.4-.2-.9-.2-1.2-.5-5.2-4-10.3-8-15.5-11.9-.3-.2-.6-.3-.9-.5 0 0-.2.2-.2.3.3.4.6.9 1 1.2 4.5 4.3 9.1 8.6 13.6 12.9.2.2.3.3.6.7Z" class="st2"/></g><path d="M34.5 119.3v19.9h-4v-12.9l-5.3 12.9h-3l-5.4-12.9v12.9h-4v-19.9h4.5l6.3 14.8 6.3-14.8h4.5ZM38.4 127c.6-1.2 1.5-2.2 2.6-2.8 1.1-.7 2.3-1 3.7-1s2.2.2 3.1.7c.9.5 1.6 1.1 2.1 1.8v-2.2h4v15.8h-4V137c-.5.7-1.2 1.4-2.1 1.8s-1.9.7-3.1.7-2.5-.3-3.6-1-2-1.6-2.6-2.9c-.6-1.2-1-2.7-1-4.3s.3-3 1-4.2Zm10.9 1.8c-.4-.7-.9-1.2-1.5-1.6s-1.3-.6-2.1-.6-1.4.2-2.1.5c-.6.4-1.1.9-1.5 1.6-.4.7-.6 1.5-.6 2.5s.2 1.8.6 2.5c.4.7.9 1.3 1.5 1.6s1.3.6 2 .6 1.4-.2 2.1-.6 1.2-.9 1.5-1.6c.4-.7.6-1.5.6-2.5s-.2-1.8-.6-2.5ZM63.7 123.9c.8-.5 1.8-.7 2.8-.7v4.2h-1.1c-1.3 0-2.2.3-2.8.9-.6.6-1 1.6-1 3.1v7.9h-4v-15.8h4v2.4c.5-.8 1.2-1.5 2-2ZM93.5 125c1.2 1.2 1.8 2.8 1.8 5v9.3h-4v-8.7c0-1.2-.3-2.2-.9-2.8-.6-.7-1.5-1-2.6-1s-1.9.3-2.6 1c-.6.7-1 1.6-1 2.8v8.7h-4v-8.7c0-1.2-.3-2.2-.9-2.8-.6-.7-1.5-1-2.6-1s-2 .3-2.6 1c-.6.7-1 1.6-1 2.8v8.7h-4v-15.8h4v1.9c.5-.7 1.2-1.2 2-1.6.8-.4 1.7-.6 2.7-.6s2.3.3 3.3.8 1.7 1.3 2.2 2.2c.5-.9 1.3-1.6 2.2-2.2 1-.6 2-.8 3.2-.8 1.9 0 3.5.6 4.7 1.8ZM99.4 120.9c-.5-.4-.7-1-.7-1.7s.2-1.2.7-1.7c.5-.4 1-.7 1.8-.7s1.3.2 1.8.7c.5.4.7 1 .7 1.7s-.2 1.2-.7 1.7c-.5.4-1 .7-1.8.7s-1.3-.2-1.8-.7Zm3.7 2.5v15.8h-4v-15.8h4Z" class="st1"/><path d="M120.6 119.3v3.2h-8.3v5.1h6.4v3.2h-6.4v8.4h-4v-19.9h12.3Z" class="st0"/><path d="M112.8 139.7h-5v-20.9h13.3v4.2h-8.3v4.1h6.4v4.2h-6.4v8.4Zm-4-1h3v-8.4h6.4v-2.2h-6.4V122h8.3v-2.2h-11.3v18.9Z"/><path d="M123.7 120.9c-.5-.4-.7-1-.7-1.7s.2-1.2.7-1.7c.5-.4 1-.7 1.8-.7s1.3.2 1.8.7c.5.4.7 1 .7 1.7s-.2 1.2-.7 1.7c-.5.4-1 .7-1.8.7s-1.3-.2-1.8-.7Zm3.7 2.5v15.8h-4v-15.8h4Z" class="st0"/><path d="M127.9 139.7h-5v-16.8h5v16.8Zm-4-1h3v-14.8h-3v14.8Zm1.6-16.7c-.8 0-1.5-.3-2.1-.8-.6-.5-.9-1.2-.9-2s.3-1.5.9-2c.6-.5 1.3-.8 2.1-.8s1.5.3 2.1.8c.6.5.9 1.2.9 2s-.3 1.5-.9 2c-.6.5-1.3.8-2.1.8Zm0-4.6c-.6 0-1 .2-1.4.5-.4.4-.5.8-.5 1.3s.2 1 .5 1.3c.4.4.8.5 1.4.5s1-.2 1.4-.5c.4-.4.5-.8.5-1.3s-.2-1-.5-1.3c-.4-.4-.8-.5-1.4-.5Z"/><path d="M136 126.7v7.6c0 .5.1.9.4 1.2.3.2.7.4 1.3.4h1.9v3.4h-2.5c-3.4 0-5-1.6-5-4.9v-7.6h-1.9v-3.3h1.9v-3.9h4v3.9h3.5v3.3h-3.5Z" class="st0"/><path d="M140 139.7h-3c-3.6 0-5.5-1.9-5.5-5.4v-7.1h-1.9v-4.3h1.9V119h5v3.9h3.5v4.3h-3.5v7.1c0 .3 0 .6.2.8 0 0 .3.2 1 .2h2.4v4.4Zm-9.4-13.5h1.9v8.1c0 3 1.4 4.4 4.5 4.4h2v-2.4h-1.4c-.7 0-1.3-.2-1.6-.5-.4-.3-.5-.8-.5-1.5v-8.1h3.5v-2.3h-3.5V120h-3v3.9h-1.9v2.3Z"/></svg>